<svg xmlns="http://www.w3.org/2000/svg" viewBox="0 0 160 160" role="img" aria-labelledby="title desc">
  <title id="title">Frontline Forecast FF front-line mark</title>
  <desc id="desc">Two letter F forms made from blue cold-front and red warm-front symbols over a radar field.</desc>
  <rect x="8" y="8" width="144" height="144" rx="38" fill="#0b1c34"/>
  <path d="M29 110a52 52 0 0 1 72-70" fill="none" stroke="#23549d" stroke-linecap="round" stroke-width="5" opacity=".72"/>
  <path d="M32 126a67 67 0 0 1 95-85" fill="none" stroke="#71b2fa" stroke-linecap="round" stroke-width="4" opacity=".36"/>
  <path d="M43 112V48h42M43 79h31" fill="none" stroke="#3281ff" stroke-linecap="round" stroke-linejoin="round" stroke-width="9"/>
  <path d="M50 48l9-7v14zm21 0 9-7v14z" fill="#a8d0ff"/>
  <path d="M89 112V62h31M89 88h23" fill="none" stroke="#ed5b5f" stroke-linecap="round" stroke-linejoin="round" stroke-width="9"/>
  <path d="M101 57a6 6 0 0 1 0 10h-5V57zm17 0a6 6 0 0 1 0 10h-5V57z" fill="#ffc1bd"/>
  <path d="M38 124c20-9 43-9 68 0" fill="none" stroke="#f7fbff" stroke-linecap="round" stroke-width="5" opacity=".92"/>
</svg>
