<svg xmlns="http://www.w3.org/2000/svg" viewBox="0 0 160 160" role="img" aria-labelledby="title desc">
  <title id="title">Frontline Forecast Contour mark</title>
  <desc id="desc">A forecast front crossing contour lines.</desc>
  <rect x="8" y="8" width="144" height="144" rx="38" fill="#122017"/>
  <path d="M31 45c16-13 44-15 63-3 20 13 26 36 15 58-10 21-36 28-59 19-22-8-31-33-19-53Z" fill="none" stroke="#88bca2" stroke-width="5"/>
  <path d="M45 62c13-9 34-10 48-1 14 9 17 25 9 39" fill="none" stroke="#88bca2" stroke-width="5"/>
  <path d="M28 106c20-22 38-27 57-17 16 8 31 4 48-12" fill="none" stroke="#f4f0e8" stroke-linecap="round" stroke-width="11"/>
  <path d="m45 97 11-2-5 10m30-10 11-2-5 10m29-5 11-2-5 10" fill="#e17e58"/>
</svg>
