<svg xmlns="http://www.w3.org/2000/svg" viewBox="0 0 160 160" role="img" aria-labelledby="t d"><title id="t">Evidence Arc mark</title><desc id="d">A forecast path crosses a verification point in a measured field.</desc><rect x="8" y="8" width="144" height="144" rx="38" fill="#10243d"/><path d="M32 41v78M56 41v78M80 41v78M104 41v78M128 41v78M28 54h104M28 79h104M28 104h104" stroke="#5d7898" stroke-width="2" opacity=".32"/><path d="M32 108c17-38 39-56 69-56 12 0 22 3 30 9" fill="none" stroke="#f8fbff" stroke-linecap="round" stroke-width="11"/><path d="M42 105c14-14 29-19 44-17" fill="none" stroke="#3281ff" stroke-linecap="round" stroke-width="7"/><path d="m58 98 10-6-4 11m18-8 10-6-4 11" fill="#b5d9ff"/><circle cx="99" cy="69" r="11" fill="#ef6267"/><circle cx="99" cy="69" r="4" fill="#f8fbff"/><path d="M30 123c21-6 43-6 64 0" fill="none" stroke="#55c8df" stroke-linecap="round" stroke-width="6"/></svg>
