<svg xmlns="http://www.w3.org/2000/svg" viewBox="0 0 160 160" role="img" aria-labelledby="t d"><title id="t">Traverse mark</title><desc id="d">A level weather front moves with confidence over a horizon.</desc><rect x="8" y="8" width="144" height="144" rx="38" fill="#10243d"/><path d="M28 91c19-19 40-20 60-7 15 10 29 7 43-6" fill="none" stroke="#f8fbff" stroke-linecap="round" stroke-width="12"/><path d="M31 51h98" stroke="#3281ff" stroke-linecap="round" stroke-width="9"/><path d="M48 51l10-7v14zm26 0 10-7v14" fill="#b8daff"/><path d="M100 44a7 7 0 0 1 0 14h-6V44zm18 0a7 7 0 0 1 0 14h-6V44z" fill="#ef6267"/><path d="M31 121h98" stroke="#55c8df" stroke-linecap="round" stroke-width="7"/><path d="m51 88 10-3-5 10m31-10 10-3-5 10" fill="#3281ff"/></svg>
